<?xml version="1.0" standalone="no"?>
<!DOCTYPE svg PUBLIC "-//W3C//DTD SVG 20010904//EN"
 "http://www.w3.org/TR/2001/REC-SVG-20010904/DTD/svg10.dtd">
<svg version="1.0" xmlns="http://www.w3.org/2000/svg"
 width="400.000000pt" height="400.000000pt" viewBox="0 0 400.000000 400.000000"
 preserveAspectRatio="xMidYMid meet">
<g transform="translate(0.000000,400.000000) scale(0.100000,-0.100000)"
fill="#000000" stroke="none">
<path d="M1795 3708 c-196 -22 -443 -101 -627 -201 -614 -335 -969 -1044 -867
-1731 14 -98 63 -281 99 -371 225 -567 702 -959 1303 -1072 69 -13 144 -17
297 -17 183 0 218 3 331 27 719 152 1246 719 1355 1459 21 144 14 387 -15 529
-138 674 -616 1177 -1280 1344 -161 41 -407 55 -596 33z m527 -157 c125 -27
248 -71 371 -132 446 -222 741 -609 843 -1108 33 -159 37 -389 9 -546 -36
-211 -130 -445 -252 -629 -89 -135 -292 -339 -422 -424 -359 -235 -764 -316
-1181 -237 -460 88 -874 397 -1089 814 -73 142 -123 285 -153 434 -32 161 -32
436 1 587 44 206 122 400 229 565 240 374 653 632 1112 695 113 15 422 4 532
-19z"/>
<path d="M1281 2794 c-87 -44 -97 -67 -190 -446 -84 -338 -94 -404 -72 -485
17 -62 63 -117 122 -147 l53 -26 257 0 257 0 -65 -190 c-58 -169 -65 -199 -66
-273 -2 -106 16 -166 65 -222 45 -51 96 -71 154 -61 63 12 95 55 137 186 53
168 84 213 280 406 130 130 176 182 196 224 l26 55 3 419 3 419 -26 52 c-16
34 -40 63 -67 81 l-41 29 -486 3 -486 3 -54 -27z"/>
<path d="M2609 2797 c-70 -46 -69 -41 -69 -535 0 -488 0 -489 61 -533 30 -21
47 -24 151 -27 107 -3 121 -2 158 19 26 15 47 37 60 64 19 39 20 62 20 479 0
420 -1 438 -20 477 -35 67 -66 79 -206 79 -109 0 -124 -2 -155 -23z"/>
</g>
</svg>
