<?xml version="1.0" standalone="no"?>
<!DOCTYPE svg PUBLIC "-//W3C//DTD SVG 20010904//EN"
 "http://www.w3.org/TR/2001/REC-SVG-20010904/DTD/svg10.dtd">
<svg version="1.0" xmlns="http://www.w3.org/2000/svg"
 width="400.000000pt" height="400.000000pt" viewBox="0 0 400.000000 400.000000"
 preserveAspectRatio="xMidYMid meet">
<g transform="translate(0.000000,400.000000) scale(0.100000,-0.100000)"
fill="#000000" stroke="none">
<path d="M1835 3714 c-634 -70 -1163 -454 -1407 -1022 -207 -482 -192 -974 44
-1442 86 -170 176 -296 303 -425 241 -244 529 -405 846 -474 657 -141 1327
105 1725 634 82 109 104 146 164 265 157 312 218 651 176 970 -77 578 -423
1068 -928 1318 -163 80 -297 125 -479 158 -83 15 -366 26 -444 18z m458 -158
c257 -47 538 -186 745 -368 154 -136 265 -281 358 -467 222 -445 225 -931 9
-1388 -78 -164 -160 -279 -305 -424 -184 -185 -369 -302 -600 -381 -386 -131
-811 -107 -1180 68 -216 102 -450 293 -587 478 -141 190 -241 420 -290 665
-27 133 -24 442 5 578 96 443 341 798 713 1031 161 101 394 187 586 216 125
19 422 15 546 -8z"/>
<path d="M2155 3034 c-46 -23 -62 -50 -96 -159 -56 -182 -82 -219 -275 -410
-122 -121 -180 -186 -200 -225 l-29 -55 0 -426 0 -425 28 -43 c20 -30 44 -50
82 -67 l53 -25 464 3 c455 3 464 3 504 25 47 25 95 76 112 119 21 54 172 674
172 707 0 55 -29 135 -63 174 -61 70 -90 76 -378 81 l-255 5 49 136 c65 180
79 242 80 331 1 123 -42 213 -117 250 -50 24 -90 25 -131 4z"/>
<path d="M1084 2252 c-23 -11 -50 -35 -62 -54 -22 -35 -22 -43 -22 -465 0
-430 0 -430 23 -463 37 -55 78 -70 192 -70 118 0 173 20 205 72 19 32 20 49
20 459 0 425 0 426 -22 459 -44 65 -68 74 -186 78 -89 2 -114 -1 -148 -16z"/>
</g>
</svg>
